<svg width="69" height="69" viewBox="0 0 69 69" fill="none" xmlns="http://www.w3.org/2000/svg">
<g id="Group 99">
<path id="Vector" d="M34.0541 68.1081C52.8616 68.1081 68.1081 52.8616 68.1081 34.054C68.1081 15.2465 52.8616 0 34.0541 0C15.2465 0 0 15.2465 0 34.054C0 52.8616 15.2465 68.1081 34.0541 68.1081Z" fill="#C93F43"/>
<path id="Vector_2" d="M45.0715 63.5538L46.0951 60.5862C43.7568 59.0535 41.4221 57.5189 38.8773 56.352C38.8657 56.3494 38.8639 56.3467 38.8639 56.3467L38.5631 56.3057C34.2889 55.7094 30.4125 55.9248 26.0982 55.5082C23.2552 55.235 19.3192 54.3457 19.2106 51.1165C19.1804 50.124 19.1154 49.8436 18.2724 49.2446C17.6022 48.7711 17.4082 48.31 17.1785 47.46C16.8714 46.3286 17.4464 45.1457 17.3868 44.0215C17.3263 42.8652 16.4548 42.2262 16.324 41.0806C16.1113 39.2533 17.4963 38.1317 17.4518 36.364C17.4224 35.2184 17.0245 34.1708 17.4883 32.9941C17.9876 31.7177 19.2399 30.7768 20.5128 30.225C22.3135 29.4488 24.0679 30.1306 25.8329 29.674C25.9638 29.6384 29.4503 28.7412 29.4503 28.7412C31.9888 28.0869 30.9563 26.7082 30.1268 24.7687C28.2647 20.4063 25.5009 15.4182 28.5442 10.9232C29.5188 9.48122 31.2581 7.81229 32.7312 9.79187C33.178 10.3954 32.8291 11.7563 32.9163 12.4853C33.0961 13.9584 33.4397 15.4334 33.9292 16.8272C35.4522 21.1923 39.2093 24.7455 41.2824 28.8961C43.7221 33.78 45.3635 38.3703 50.4032 41.2132C51.0708 41.5889 51.7454 41.9458 52.4308 42.284L52.6569 41.6262L66.2852 46.0625C63.5615 54.6769 57.2925 61.7104 49.19 65.4595L45.0715 63.5538Z" fill="white"/>
</g>
</svg>
