<svg width="70" height="68" viewBox="0 0 70 68" fill="none" xmlns="http://www.w3.org/2000/svg">
<g id="Group 107">
<path id="Vector" d="M34.3687 67.7627C53.0155 67.7627 68.1318 52.6464 68.1318 33.9995C68.1318 15.3526 53.0155 0.236328 34.3687 0.236328C15.7218 0.236328 0.605469 15.3526 0.605469 33.9995C0.605469 52.6464 15.7218 67.7627 34.3687 67.7627Z" fill="#C93F43"/>
<g id="Group">
<g id="Group_2">
<path id="Vector_2" d="M48.5431 35.323C54.1471 34.4472 59.575 34.983 64.0352 36.9741C59.3266 34.5237 53.4493 33.3844 47.2364 34.1267C41.6991 34.7889 36.768 36.8549 32.9316 39.7762C33.285 34.1036 37.6456 29.3611 43.4998 28.593C60.0699 26.4096 69.2423 40.1865 69.2423 40.1865C61.4922 36.9519 55.2144 51.2994 46.3624 52.4814C40.2251 53.2977 34.5962 49.1934 33.2174 43.293C33.1159 42.8613 40.1797 36.6288 48.5431 35.323Z" fill="#F4D6D6"/>
</g>
<g id="Group_3">
<path id="Vector_3" d="M23.1146 31.2809C19.9583 29.5746 16.6062 28.7432 13.5238 28.9907C16.8509 28.5252 20.6009 29.0877 24.148 30.8457C27.3141 32.4131 29.817 34.6873 31.4895 37.2437C32.4784 33.7839 30.8806 30.0303 27.5499 28.3329C18.1256 23.5264 9.7373 29.806 9.7373 29.806C15.0476 29.5158 15.7561 39.4048 20.7905 41.9817C24.2752 43.7681 28.5032 42.5104 30.5736 39.2811C30.7258 39.0417 27.8285 33.831 23.1146 31.2809Z" fill="#F4D6D6"/>
</g>
<g id="Group_4">
<path id="Vector_4" d="M36.8962 21.7918C37.1882 19.036 36.7956 16.4013 35.7115 14.2722C37.0235 16.509 37.724 19.3511 37.5113 22.3997C37.3244 25.1198 36.4369 27.5756 35.1036 29.5205C37.8646 29.2098 40.0739 26.9659 40.3053 24.0882C40.9675 15.9474 34.0176 11.8066 34.0176 11.8066C35.7862 15.5121 28.9361 18.9256 28.5765 23.2755C28.3264 26.2903 30.4706 28.9383 33.3812 29.4671C33.5949 29.5035 36.4627 25.9049 36.8962 21.7918Z" fill="#F4D6D6"/>
</g>
</g>
</g>
</svg>
