<svg width="17" height="15" viewBox="0 0 17 15" fill="none" xmlns="http://www.w3.org/2000/svg">
<path id="twitter" d="M16.97 1.69436C16.3024 1.99163 15.6346 2.17727 14.9673 2.25184C15.721 1.78369 16.2309 1.12231 16.4965 0.267754C15.807 0.691244 15.0713 0.980976 14.289 1.1371C13.5997 0.379141 12.7528 0 11.7477 0C10.7858 0 9.96577 0.351067 9.28707 1.05336C8.60887 1.75562 8.26967 2.60455 8.26967 3.60029C8.26967 3.86777 8.29834 4.14282 8.35581 4.42518C6.93442 4.35087 5.60105 3.98119 4.35549 3.3161C3.10999 2.65093 2.05296 1.76476 1.1844 0.657548C0.86853 1.21477 0.71055 1.8205 0.71055 2.47443C0.71055 3.09122 0.8505 3.66349 1.13061 4.19112C1.41053 4.71866 1.78749 5.1459 2.2613 5.47292C1.70128 5.45059 1.17726 5.29821 0.6892 5.01581V5.06039C0.6892 5.92991 0.95301 6.69331 1.48057 7.35117C2.0082 8.00895 2.67405 8.423 3.47798 8.594C3.17645 8.67564 2.8713 8.71652 2.56267 8.71652C2.36166 8.71652 2.14269 8.69797 1.90584 8.66108C2.12836 9.38174 2.53756 9.97419 3.1333 10.4389C3.72915 10.9033 4.40395 11.1427 5.15772 11.1579C3.89435 12.1832 2.45507 12.6959 0.83991 12.6959C0.53118 12.6959 0.25129 12.6813 0 12.6515C1.61521 13.7289 3.39546 14.2676 5.34086 14.2676C6.57556 14.2676 7.73491 14.0653 8.81847 13.6602C9.90267 13.2554 10.8286 12.7128 11.5968 12.0327C12.3648 11.3528 13.0271 10.5707 13.5834 9.6864C14.1397 8.80202 14.5541 7.87879 14.8271 6.91647C15.0998 5.95395 15.2362 4.98997 15.2362 4.02374C15.2362 3.81564 15.2326 3.65967 15.2254 3.55558C15.9076 3.04307 16.489 2.42246 16.97 1.69436Z" fill="#C93F43"/>
</svg>
