<svg width="282" height="1387" viewBox="0 0 282 1387" fill="none" xmlns="http://www.w3.org/2000/svg">
<path d="M0 58.3219V0.721878L280 0.721878V57.9219L164 139.122L280 220.322V277.122L0 277.122V220.322L191.6 220.322L101.6 155.922L101.6 123.922L191.6 58.3219L0 58.3219ZM0 571.003L0 361.003L280 361.003L280 566.603H228.4L228.4 418.603L174.4 418.603L174.4 537.803H123.6L123.6 418.603H51.6L51.6 571.003H0ZM0 743.663V638.863L280 638.863V743.663C280 788.996 266.933 825.929 240.8 854.463C214.667 882.996 181.067 897.263 140 897.263C98.6667 897.263 64.9333 882.996 38.8 854.463C12.9333 826.196 0 789.263 0 743.663ZM228.4 696.463L51.6 696.463L51.6 738.863C51.6 770.063 59.3333 794.329 74.8 811.663C90.5333 829.263 112.267 838.063 140 838.063C167.733 838.063 189.333 829.263 204.8 811.663C220.533 794.329 228.4 770.063 228.4 738.863L228.4 696.463ZM0 1030.61L0 973.409L280 973.409L280 1030.61H0ZM0 1152.07V1091.67L281.6 1211.67L281.6 1266.87L0 1386.87V1325.67L64.8 1298.07L64.8 1179.67L0 1152.07ZM209.6 1238.87L112.4 1197.67V1279.67L209.6 1238.87Z" fill="#FBEFEF"/>
</svg>
