<svg width="14" height="14" viewBox="0 0 14 14" fill="none" xmlns="http://www.w3.org/2000/svg">
<g id="insta">
<path d="M10.2103 0H3.78967C1.70001 0 0 1.70001 0 3.78967V10.2104C0 12.3 1.70001 14 3.78967 14H10.2104C12.3 14 14 12.3 14 10.2104V3.78967C14 1.70001 12.3 0 10.2103 0ZM6.99999 10.828C4.88918 10.828 3.17198 9.11079 3.17198 6.99999C3.17198 4.88918 4.88918 3.17198 6.99999 3.17198C9.11079 3.17198 10.828 4.88918 10.828 6.99999C10.828 9.11079 9.11079 10.828 6.99999 10.828ZM10.9195 4.07475C10.2958 4.07475 9.7884 3.56739 9.7884 2.94361C9.7884 2.31984 10.2958 1.81237 10.9195 1.81237C11.5433 1.81237 12.0508 2.31984 12.0508 2.94361C12.0508 3.56739 11.5433 4.07475 10.9195 4.07475Z" fill="#C93F43"/>
<path d="M6.99946 3.99219C5.34132 3.99219 3.99219 5.34121 3.99219 6.99946C3.99219 8.6576 5.34132 10.0067 6.99946 10.0067C8.65771 10.0067 10.0067 8.6576 10.0067 6.99946C10.0067 5.34121 8.65771 3.99219 6.99946 3.99219Z" fill="#C93F43"/>
</g>
</svg>
