<svg width="18" height="14" viewBox="0 0 18 14" fill="none" xmlns="http://www.w3.org/2000/svg">
<path id="youtube" d="M17.2146 1.1202C16.568 0.32455 15.3742 0 13.0943 0H4.81832C2.48625 0 1.27221 0.345481 0.628047 1.19255C0 2.01847 0 3.23538 0 4.91961V8.12975C0 11.3926 0.745173 13.0493 4.81832 13.0493H13.0943C15.0714 13.0493 16.167 12.763 16.8758 12.0607C17.6027 11.3408 17.9128 10.1651 17.9128 8.12975V4.91961C17.9128 3.14345 17.8642 1.91936 17.2146 1.1202ZM11.5001 6.96787L7.74198 9.00099C7.65797 9.04645 7.56609 9.06901 7.47432 9.06901C7.37043 9.06901 7.26677 9.04004 7.17496 8.98251C7.00207 8.87407 6.8965 8.68009 6.8965 8.47086V4.41765C6.8965 4.20878 7.00178 4.01499 7.17432 3.90648C7.34692 3.79799 7.56158 3.79058 7.74065 3.88687L11.4988 5.90689C11.69 6.00965 11.81 6.21397 11.8103 6.4369C11.8106 6.66001 11.691 6.86463 11.5001 6.96787Z" fill="#C93F43"/>
</svg>
