<svg width="28" height="28" viewBox="0 0 28 28" fill="none" xmlns="http://www.w3.org/2000/svg">
<path d="M5.96933 19.6238C7.01745 18.5756 8.235 17.758 9.55991 17.1954C8.15649 15.961 7.26874 14.154 7.26874 12.1426C7.26874 8.4306 10.2883 5.41104 14 5.41104C17.7117 5.41104 20.7313 8.4306 20.7313 12.1423C20.7313 14.1557 19.8418 15.9637 18.4367 17.1984C21.1406 18.3465 23.3308 20.5162 24.4805 23.271C26.669 20.8 28 17.5527 28 14C28 6.28034 21.7197 0 14 0C6.28034 0 0 6.28034 0 14C0 17.553 1.33129 20.8007 3.52013 23.272C4.08546 21.9186 4.91114 20.6819 5.96933 19.6238Z" fill="#C93F43"/>
<path d="M5.57568 25.1745C7.92154 26.9473 10.8398 28.0001 13.9999 28.0001C17.1597 28.0001 20.0779 26.9473 22.4235 25.1748C21.3415 21.4765 17.9297 18.874 13.9999 18.874C11.6547 18.874 9.44977 19.7876 7.79103 21.446C6.7409 22.4961 5.98601 23.7721 5.57568 25.1745Z" fill="#C93F43"/>
<path d="M18.1548 12.1424C18.1548 9.85153 16.2911 7.98779 14.0003 7.98779C11.7094 7.98779 9.8457 9.85153 9.8457 12.1424C9.8457 14.4335 11.7094 16.2973 14.0003 16.2973C16.2911 16.2973 18.1548 14.4335 18.1548 12.1424Z" fill="#C93F43"/>
</svg>
