<svg width="67" height="66" viewBox="0 0 67 66" fill="none" xmlns="http://www.w3.org/2000/svg">
<g id="Group">
<path id="Vector" d="M33.4454 65.8254C51.5744 65.8254 66.2708 51.1291 66.2708 33.0001C66.2708 14.8712 51.5744 0.174805 33.4454 0.174805C15.3165 0.174805 0.620117 14.8712 0.620117 33.0001C0.620117 51.1291 15.3165 65.8254 33.4454 65.8254Z" fill="#C93F43"/>
<path id="Vector_2" d="M49.1509 4.1709C42.6571 7.25336 39.888 11.0835 38.8443 12.6394C37.5151 14.6177 37.4346 17.1126 36.7692 18.5785C36.635 18.8745 36.4992 19.1722 36.3235 19.4638C35.9808 19.4249 35.633 19.443 35.292 19.5252C34.064 18.6443 33.0472 17.6006 32.2718 16.48C32.5349 17.2951 32.9641 18.1121 33.5396 18.8831C32.4562 18.0558 31.5423 17.1065 30.8379 16.0845C31.1027 16.9075 31.5362 17.733 32.1204 18.5101C32.0347 18.4522 31.9464 18.4063 31.8616 18.3466C30.6146 17.4596 29.5866 16.4047 28.8025 15.2711C29.3382 16.9378 30.5644 18.6122 32.3454 19.8792C32.7374 20.1578 33.1406 20.4018 33.5474 20.6173C33.4504 20.7298 33.3492 20.8389 33.2644 20.9661C33.1337 21.1616 33.0273 21.3641 32.939 21.571C32.0122 21.8185 30.8379 22.027 29.327 22.1836C23.1603 22.824 22.886 22.8794 22.494 24.5279C22.1046 26.1782 23.1439 27.8311 23.3602 28.9344C23.5766 30.0361 23.6259 31.2822 22.2222 31.8438C21.3508 32.1926 20.0882 31.7175 19.8502 33.8411C19.7222 34.9834 20.8887 35.6411 21.3829 36.3316C21.877 37.0222 20.8627 35.5052 20.0372 35.3079C19.2133 35.1132 17.8876 36.0175 17.9386 37.0084C17.9923 37.9992 18.1818 38.6058 18.4007 38.9918C18.6197 39.3777 18.3142 40.3677 18.0096 40.6403C17.705 40.9155 15.8583 42.4221 15.0821 43.5774C14.3067 44.7301 11.9615 47.3366 14.954 49.8228C17.9439 52.3099 24.8374 54.5425 27.3444 55.7532C29.243 56.6696 28.8908 61.0718 28.0108 65.3675C29.7796 65.6626 31.5943 65.8235 33.4462 65.8235C51.5749 65.8235 66.2714 51.1278 66.2714 32.9982C66.2697 20.5611 59.3502 9.73871 49.1509 4.1709Z" fill="white"/>
<path id="Vector_3" d="M55.4727 8.66406C60.748 14.488 63.9629 22.2141 63.9629 30.6913C63.9629 48.82 49.2671 63.5166 31.1375 63.5166C22.6603 63.5166 14.9343 60.3017 9.11035 55.0264C15.116 61.6577 23.794 65.8245 33.4455 65.8245C51.5742 65.8245 66.2708 51.1288 66.2708 32.9992C66.2699 23.3477 62.104 14.6706 55.4727 8.66406Z" fill="#C93F43"/>
</g>
</svg>
