<svg width="1335" height="183" viewBox="0 0 1335 183" fill="none" xmlns="http://www.w3.org/2000/svg">
<path d="M94.8927 182.5C67.726 182.5 45.1427 174 27.1427 157C9.1427 139.667 0.142701 117.833 0.142701 91.5C0.142701 64.8333 9.05937 43 26.8927 26C44.8927 8.99999 67.5594 0.499988 94.8927 0.499988C111.893 0.499988 127.309 4.16666 141.143 11.5V47.75C127.643 38.75 112.309 34.25 95.1427 34.25C78.6427 34.25 64.726 39.6667 53.3927 50.5C42.3927 61.1667 36.8927 74.8333 36.8927 91.5C36.8927 108.167 42.5594 121.917 53.8927 132.75C65.0594 143.417 79.3094 148.75 96.6427 148.75C115.809 148.75 131.809 143.667 144.643 133.5V169.75C130.476 178.25 113.893 182.5 94.8927 182.5ZM242.641 132.5C252.974 143.333 265.891 148.75 281.391 148.75C296.724 148.75 309.557 143.333 319.891 132.5C330.224 121.667 335.391 108 335.391 91.5C335.391 75 330.224 61.3333 319.891 50.5C309.557 39.6667 296.724 34.25 281.391 34.25C265.891 34.25 252.974 39.6667 242.641 50.5C232.474 61.1667 227.391 74.8333 227.391 91.5C227.391 108.167 232.474 121.833 242.641 132.5ZM190.641 91.5C190.641 65.8333 199.224 44.3333 216.391 27C233.557 9.33332 255.224 0.499988 281.391 0.499988C307.391 0.499988 328.974 9.33332 346.141 27C363.474 44.6667 372.141 66.1667 372.141 91.5C372.141 116.667 363.474 138.167 346.141 156C328.974 173.667 307.391 182.5 281.391 182.5C255.224 182.5 233.557 173.667 216.391 156C199.224 138.333 190.641 116.833 190.641 91.5ZM500.899 182.5C479.065 182.5 461.149 175.75 447.149 162.25C433.149 148.75 426.149 129.833 426.149 105.5V3.99999H461.899V106.75C461.899 120.25 465.399 130.667 472.399 138C479.565 145.167 489.065 148.75 500.899 148.75C512.899 148.75 522.399 145.167 529.399 138C536.565 130.667 540.149 120.25 540.149 106.75V3.99999H576.149V105.5C576.149 129.833 569.065 148.75 554.899 162.25C540.899 175.75 522.899 182.5 500.899 182.5ZM671.986 179H635.986V3.99999H716.986C735.653 3.99999 750.32 8.83332 760.986 18.5C771.82 28 777.236 40.4167 777.236 55.75C777.236 67.4167 773.986 77.5833 767.486 86.25C761.153 94.75 752.32 100.75 740.986 104.25L794.986 179H753.236L702.236 108.25H671.986V179ZM671.986 35.5V78H714.986C723.153 78 729.486 76.1667 733.986 72.5C738.653 68.8333 740.986 63.5833 740.986 56.75C740.986 50.0833 738.653 44.9167 733.986 41.25C729.486 37.4167 723.153 35.5 714.986 35.5H671.986ZM900.354 182.5C874.02 182.5 851.854 176.25 833.854 163.75V126.25C841.187 132.583 850.854 138.083 862.854 142.75C875.02 147.25 887.02 149.5 898.854 149.5C908.687 149.5 916.77 147.75 923.104 144.25C929.437 140.583 932.604 135.583 932.604 129.25C932.604 122.417 929.604 117.583 923.604 114.75C921.104 113.25 917.77 111.75 913.604 110.25L907.604 108.25L893.604 104L880.604 99.75C878.77 99.25 874.854 97.8333 868.854 95.5C863.687 93.5 859.937 91.75 857.604 90.25C848.937 84.25 843.437 79.1667 841.104 75C837.104 67 835.104 58.8333 835.104 50.5C835.104 35 841.02 22.8333 852.854 14C864.687 4.99999 880.77 0.499988 901.104 0.499988C921.604 0.499988 940.687 5.33332 958.354 15V50C940.52 39 921.604 33.5 901.604 33.5C881.77 33.5 871.854 39.25 871.854 50.75C871.854 55.75 874.937 59.75 881.104 62.75C884.77 64.75 889.52 66.5 895.354 68C903.187 70.1667 909.52 72 914.354 73.5C928.854 78 941.52 84.0833 952.354 91.75C964.02 99.9167 969.854 112.083 969.854 128.25C969.854 145.083 963.27 158.333 950.104 168C936.937 177.667 920.354 182.5 900.354 182.5ZM1154.58 179H1023.33V3.99999H1151.83V36.25H1059.33V70H1133.83V101.75H1059.33V146.75H1154.58V179ZM1264.99 182.5C1238.66 182.5 1216.49 176.25 1198.49 163.75V126.25C1205.83 132.583 1215.49 138.083 1227.49 142.75C1239.66 147.25 1251.66 149.5 1263.49 149.5C1273.33 149.5 1281.41 147.75 1287.74 144.25C1294.08 140.583 1297.24 135.583 1297.24 129.25C1297.24 122.417 1294.24 117.583 1288.24 114.75C1285.74 113.25 1282.41 111.75 1278.24 110.25L1272.24 108.25L1258.24 104L1245.24 99.75C1243.41 99.25 1239.49 97.8333 1233.49 95.5C1228.33 93.5 1224.58 91.75 1222.24 90.25C1213.58 84.25 1208.08 79.1667 1205.74 75C1201.74 67 1199.74 58.8333 1199.74 50.5C1199.74 35 1205.66 22.8333 1217.49 14C1229.33 4.99999 1245.41 0.499988 1265.74 0.499988C1286.24 0.499988 1305.33 5.33332 1322.99 15V50C1305.16 39 1286.24 33.5 1266.24 33.5C1246.41 33.5 1236.49 39.25 1236.49 50.75C1236.49 55.75 1239.58 59.75 1245.74 62.75C1249.41 64.75 1254.16 66.5 1259.99 68C1267.83 70.1667 1274.16 72 1278.99 73.5C1293.49 78 1306.16 84.0833 1316.99 91.75C1328.66 99.9167 1334.49 112.083 1334.49 128.25C1334.49 145.083 1327.91 158.333 1314.74 168C1301.58 177.667 1284.99 182.5 1264.99 182.5Z" fill="#FBEFEF"/>
</svg>
