<svg width="1266" height="294" viewBox="0 0 1266 294" fill="none" xmlns="http://www.w3.org/2000/svg">
<path d="M60.8169 294H0.336949V-1.97291e-05H136.417C167.777 -1.97291e-05 192.417 8.11998 210.337 24.36C228.537 40.32 237.637 61.18 237.637 86.94C237.637 106.54 232.177 123.62 221.257 138.18C210.617 152.46 195.777 162.54 176.737 168.42L267.457 294H197.317L111.637 175.14H60.8169V294ZM60.8169 52.92V124.32H133.057C146.777 124.32 157.417 121.24 164.977 115.08C172.817 108.92 176.737 100.1 176.737 88.62C176.737 77.42 172.817 68.74 164.977 62.58C157.417 56.14 146.777 52.92 133.057 52.92H60.8169ZM573.834 294H353.334V-1.97291e-05H569.214V54.18H413.814V110.88H538.974V164.22H413.814V239.82H573.834V294ZM727.406 294H668.186V-1.97291e-05H719.846L868.106 188.16V-1.97291e-05H926.906V294H876.926L727.406 105V294ZM1018.67 54.18V-1.97291e-05H1265.21V54.18H1171.97V294H1111.49V54.18H1018.67Z" fill="#FBEFEF"/>
</svg>
