<svg width="10" height="18" viewBox="0 0 10 18" fill="none" xmlns="http://www.w3.org/2000/svg">
<path id="facebook" d="M8.82931 0.00365529L6.6287 0C4.15638 0 2.55865 1.69697 2.55865 4.32348V6.31689H0.346027C0.154828 6.31689 0 6.47735 0 6.67529V9.56352C0 9.76149 0.155005 9.92175 0.346027 9.92175H2.55865V17.2097C2.55865 17.4076 2.71348 17.5679 2.90467 17.5679H5.79152C5.98272 17.5679 6.13755 17.4074 6.13755 17.2097V9.92175H8.72463C8.91582 9.92175 9.07065 9.76149 9.07065 9.56352L9.07171 6.67529C9.07171 6.58025 9.03516 6.48924 8.97037 6.42197C8.90558 6.35471 8.81731 6.31689 8.7255 6.31689H6.13755V4.62705C6.13755 3.81485 6.32451 3.40253 7.34652 3.40253L8.82896 3.40198C9.01998 3.40198 9.1748 3.24151 9.1748 3.04376V0.361873C9.1748 0.164306 9.02016 0.00402082 8.82931 0.00365529Z" fill="#C93F43"/>
</svg>
